<?xml version="1.0" encoding="utf-8"?>
<!-- Generator: Adobe Illustrator 15.0.2, SVG Export Plug-In  -->
<!DOCTYPE svg PUBLIC "-//W3C//DTD SVG 1.1//EN" "http://www.w3.org/Graphics/SVG/1.1/DTD/svg11.dtd" [
	<!ENTITY ns_flows "http://ns.adobe.com/Flows/1.0/">
]>
<svg version="1.1"
	 xmlns="http://www.w3.org/2000/svg" xmlns:xlink="http://www.w3.org/1999/xlink" xmlns:a="http://ns.adobe.com/AdobeSVGViewerExtensions/3.0/"
	 x="0px" y="0px" width="162px" height="162px" viewBox="0 0 162 162" overflow="visible" enable-background="new 0 0 162 162"
	 xml:space="preserve">
<defs>
</defs>
<path stroke="#000000" stroke-miterlimit="10" d="M161.5,27.5v-27H0.5v161H61c0-1.104,0.896-2,2-2s2,0.896,2,2h32
	c0-1.104,0.896-2,2-2s2,0.896,2,2h60.5v-126h-8v-8H161.5z M82,96.5c-12.426,0-22.5-10.073-22.5-22.5S69.574,51.5,82,51.5
	c12.427,0,22.5,10.073,22.5,22.5S94.427,96.5,82,96.5z"/>
<g>
	<path fill="#4D4D4D" d="M81,152c-2.206,0-4-2.291-4-5.106v-32.787c0-2.815,1.794-5.106,4-5.106c2.206,0,4,2.291,4,5.106v32.787
		C85,149.709,83.206,152,81,152z"/>
	<path fill="#4D4D4D" d="M80.5,109.5c1.897,0,3.5,2.109,3.5,4.606v32.787c0,2.497-1.603,4.606-3.5,4.606
		c-1.897,0-3.5-2.109-3.5-4.606v-32.787C77,111.609,78.603,109.5,80.5,109.5 M80.5,108.5c-2.475,0-4.5,2.522-4.5,5.606v32.787
		c0,3.084,2.025,5.606,4.5,5.606c2.475,0,4.5-2.522,4.5-5.606v-32.787C85,111.022,82.975,108.5,80.5,108.5L80.5,108.5z"/>
</g>
<circle fill="#4D4D4D" stroke="#4D4D4D" stroke-miterlimit="10" cx="121.5" cy="72" r="4"/>
<path fill="#4D4D4D" stroke="#4D4D4D" stroke-miterlimit="10" d="M81,45.5c-14.91,0-27,12.088-27,27s12.09,27,27,27
	c14.912,0,27-12.088,27-27S95.912,45.5,81,45.5z M82,96.5c-12.426,0-22.5-10.073-22.5-22.5S69.574,51.5,82,51.5
	c12.427,0,22.5,10.073,22.5,22.5S94.427,96.5,82,96.5z"/>
<path fill="#E8EFEC" d="M70.977,30.627c0.042,2.761-2.161,5.034-4.922,5.077l-52.994,0.824c-2.76,0.042-5.034-2.16-5.076-4.922
	L7.72,14.61c-0.043-2.762,2.161-5.035,4.922-5.078l52.993-0.824c2.761-0.042,5.035,2.161,5.077,4.922L70.977,30.627z"/>
<g>
	<defs>
		
			<rect id="SVGID_1_" x="7.709" y="9.119" transform="matrix(0.9999 -0.0156 0.0156 0.9999 -0.2072 0.6119)" width="63" height="9"/>
	</defs>
	<clipPath id="SVGID_2_">
		<use xlink:href="#SVGID_1_"  overflow="visible"/>
	</clipPath>
	<path clip-path="url(#SVGID_2_)" fill="#6DC065" d="M70.977,30.627c0.042,2.761-2.161,5.034-4.922,5.077l-52.994,0.824
		c-2.76,0.042-5.034-2.16-5.076-4.922L7.72,14.61c-0.043-2.762,2.161-5.035,4.922-5.078l52.993-0.824
		c2.761-0.042,5.035,2.161,5.077,4.922L70.977,30.627z"/>
</g>
<line opacity="0.3" fill="none" stroke="#809EAD" stroke-miterlimit="10" x1="11.868" y1="24.045" x2="65.861" y2="23.207"/>
<line opacity="0.3" fill="none" stroke="#809EAD" stroke-miterlimit="10" x1="11.96" y1="30.045" x2="65.954" y2="29.206"/>
</svg>
