<?xml version="1.0" encoding="utf-8"?>
<!-- Generator: Adobe Illustrator 15.0.2, SVG Export Plug-In  -->
<!DOCTYPE svg PUBLIC "-//W3C//DTD SVG 1.1//EN" "http://www.w3.org/Graphics/SVG/1.1/DTD/svg11.dtd" [
	<!ENTITY ns_flows "http://ns.adobe.com/Flows/1.0/">
]>
<svg version="1.1"
	 xmlns="http://www.w3.org/2000/svg" xmlns:xlink="http://www.w3.org/1999/xlink" xmlns:a="http://ns.adobe.com/AdobeSVGViewerExtensions/3.0/"
	 x="0px" y="0px" width="72px" height="72px" viewBox="0 0 72 72" overflow="visible" enable-background="new 0 0 72 72"
	 xml:space="preserve">
<defs>
</defs>
<path fill="#3FA9F5" d="M35.841,0C16.046,0,0,16.047,0,35.841s16.046,35.841,35.841,35.841s35.841-16.047,35.841-35.841
	S55.635,0,35.841,0z M42.396,11.101c2.164,0.571,4.243,1.424,6.18,2.537l-1.992,3.469c-1.632-0.938-3.384-1.657-5.208-2.138
	L42.396,11.101z M35.775,10.25l0.011,4c-1.89,0.005-3.77,0.256-5.588,0.746l-1.041-3.862C31.311,10.554,33.538,10.256,35.775,10.25z
	 M13.647,23.089l3.467,1.994c-0.938,1.631-1.659,3.383-2.143,5.208l-3.866-1.024C11.678,27.103,12.533,25.024,13.647,23.089z
	 M10.25,35.888l4-0.008c0.003,1.889,0.253,3.77,0.742,5.588l-3.863,1.038C10.55,40.352,10.255,38.125,10.25,35.888z M17.77,53.961
	l-0.024-0.024c-1.578-1.579-2.941-3.348-4.051-5.261l3.46-2.008c0.936,1.613,2.086,3.107,3.419,4.44L17.77,53.961z M17.681,17.811
	l0.123-0.121c1.515-1.518,3.279-2.877,5.187-3.986L25,17.163c-1.608,0.935-3.097,2.083-4.425,3.412L17.681,17.811z M29.248,60.572
	c-2.163-0.575-4.241-1.431-6.176-2.546l1.997-3.466c1.631,0.94,3.382,1.662,5.205,2.146L29.248,60.572z M33.841,40.894v-17h4v13h9v4
	H33.841z M35.869,61.432l-0.005-4c1.89-0.002,3.77-0.25,5.589-0.738l1.035,3.863C40.333,61.135,38.106,61.429,35.869,61.432z
	 M53.936,53.937c-1.583,1.583-3.358,2.949-5.277,4.06l-2.005-3.462c1.619-0.937,3.117-2.09,4.454-3.426l2.841,2.815L53.936,53.937z
	 M51.108,20.574l2.778-2.878l0.05,0.05c1.587,1.587,2.957,3.368,4.07,5.293l-3.463,2.003C53.604,23.418,52.448,21.915,51.108,20.574
	z M58.015,48.627l-3.464-2c0.941-1.63,1.665-3.381,2.15-5.204l3.865,1.03C59.99,44.615,59.132,46.692,58.015,48.627z M57.432,35.835
	c-0.001-1.89-0.248-3.77-0.734-5.589l3.864-1.032c0.576,2.155,0.869,4.382,0.87,6.62L57.432,35.835z"/>
</svg>
