<?xml version="1.0" encoding="utf-8"?>
<!-- Generator: Adobe Illustrator 15.0.2, SVG Export Plug-In  -->
<!DOCTYPE svg PUBLIC "-//W3C//DTD SVG 1.1//EN" "http://www.w3.org/Graphics/SVG/1.1/DTD/svg11.dtd" [
	<!ENTITY ns_flows "http://ns.adobe.com/Flows/1.0/">
]>
<svg version="1.1"
	 xmlns="http://www.w3.org/2000/svg" xmlns:xlink="http://www.w3.org/1999/xlink" xmlns:a="http://ns.adobe.com/AdobeSVGViewerExtensions/3.0/"
	 x="0px" y="0px" width="72px" height="73px" viewBox="0 0 72 73" overflow="visible" enable-background="new 0 0 72 73"
	 xml:space="preserve">
<defs>
</defs>
<path fill="#7AC943" d="M35.841,0C16.047,0,0,16.046,0,35.841c0,19.794,16.047,35.841,35.841,35.841
	c19.795,0,35.841-16.047,35.841-35.841C71.682,16.046,55.636,0,35.841,0z M53.329,18.741C51.05,28.64,37.91,48.979,34.91,57.859
	c-0.12,0.36-0.42,0.48-0.78,0.48c-1.38,0-3.84-2.58-3.84-5.7c0-7.74,3.9-22.199,3.9-32.399c0-2.28-0.42-3.24-1.32-3.6
	c-4.08,0.18-10.14,12.54-10.14,19.979c0,2.64,0.78,4.68,2.76,5.22c0.66,0.18,0.96,0.54,0.96,0.84c0,0.3-0.359,0.6-1.14,0.6
	c-5.04,0-7.02-4.979-7.02-9c0-8.34,6.659-19.319,13.499-19.319c3.54,0,7.32,1.98,7.32,7.14c0,7.14-2.521,21.06-3.601,29.579
	c3.42-8.939,10.5-24.059,12.36-35.339c0.18-0.96,1.02-1.439,2.1-1.439c1.56,0,3.42,1.08,3.42,3.06
	C53.39,18.201,53.39,18.5,53.329,18.741z"/>
</svg>
